<svg width="25" height="25" viewBox="0 0 25 25" fill="none" xmlns="http://www.w3.org/2000/svg">
<path d="M12.5 25C19.4036 25 25 19.4036 25 12.5C25 5.59644 19.4036 0 12.5 0C5.59644 0 0 5.59644 0 12.5C0 19.4036 5.59644 25 12.5 25Z" fill="white"/>
<path d="M8.61285 10.9042L12.4949 7.0203L16.379 10.9062L18.6378 8.6462L12.4949 2.5L6.35407 8.6442L8.61285 10.9042ZM2.50006 12.4997L4.759 10.2396L7.01779 12.4996L4.75887 14.7596L2.50006 12.4997ZM8.61285 14.0958L12.4949 17.9797L16.3789 14.0939L18.6389 16.3527L18.6378 16.3539L12.4949 22.5L6.35387 16.356L6.35068 16.3528L8.61285 14.0958ZM17.9724 12.5009L20.2313 10.2409L22.4901 12.5008L20.2312 14.7609L17.9724 12.5009Z" fill="black"/>
<path d="M14.7861 12.4988H14.7871L12.4949 10.2055L10.801 11.9003H10.8009L10.6063 12.0951L10.2049 12.4968L10.2017 12.4999L10.2049 12.5032L12.4949 14.7945L14.7871 12.5012L14.7882 12.4999L14.7861 12.4988Z" fill="black"/>
</svg>
