<svg width="42" height="50" viewBox="0 0 42 50" fill="none" xmlns="http://www.w3.org/2000/svg">
<path fill-rule="evenodd" clip-rule="evenodd" d="M5.39152 27.2956H10.2869C10.4617 27.2956 10.6294 27.3621 10.753 27.4806C10.8766 27.599 10.946 27.7596 10.946 27.9271V32.6177C10.946 32.7852 10.8766 32.9458 10.753 33.0643C10.6294 33.1827 10.4617 33.2493 10.2869 33.2493H5.39152C5.21671 33.2493 5.04907 33.1827 4.92546 33.0643C4.80186 32.9458 4.73241 32.7852 4.73241 32.6177V27.9267C4.73241 27.7592 4.80186 27.5986 4.92546 27.4801C5.04907 27.3617 5.21671 27.2951 5.39152 27.2951V27.2956ZM1.20312 14.0425V8.53893C1.20498 7.96215 1.44492 7.40949 1.87054 7.00164C2.29617 6.59378 2.87292 6.36387 3.47484 6.36209H5.19247V8.15199C5.19375 8.57897 5.37132 8.98812 5.68641 9.29005C6.00149 9.59197 6.42847 9.76213 6.87407 9.76336H9.20291C9.6485 9.76224 10.0755 9.5921 10.3905 9.29014C10.7056 8.98818 10.883 8.57897 10.8841 8.15199V6.36209H31.0694V8.15199C31.0704 8.57926 31.2481 8.98873 31.5635 9.29074C31.879 9.59275 32.3064 9.76269 32.7523 9.76336H35.0785C35.5243 9.76258 35.9517 9.59259 36.267 9.29059C36.5823 8.98859 36.7599 8.57919 36.761 8.15199V6.36209H38.4786C39.0804 6.36442 39.6568 6.59451 40.0823 7.00225C40.5078 7.40998 40.7479 7.96232 40.7503 8.53893V14.0425H1.20312ZM40.7494 15.3057H1.20312V34.8573C1.20498 35.434 1.44492 35.9867 1.87054 36.3946C2.29617 36.8024 2.87292 37.0323 3.47484 37.0341H38.4782C39.0799 37.0318 39.6563 36.8017 40.0818 36.3939C40.5073 35.9862 40.7475 35.4339 40.7499 34.8573V15.3061L40.7494 15.3057ZM35.0781 2.96588H32.7523C32.6561 2.96654 32.5641 3.00335 32.4959 3.0684C32.4278 3.13344 32.3891 3.22152 32.388 3.31367V8.15199C32.3888 8.24421 32.4275 8.33241 32.4957 8.3975C32.5639 8.46259 32.6561 8.49934 32.7523 8.49978H35.0785C35.1747 8.49966 35.2669 8.46297 35.3349 8.39776C35.4028 8.33255 35.441 8.24415 35.441 8.15199V3.31367C35.4408 3.22157 35.4025 3.1333 35.3346 3.06814C35.2667 3.00298 35.1742 2.96621 35.0781 2.96588ZM9.20115 2.96588H6.87231C6.7763 2.96665 6.68445 3.00354 6.61656 3.0686C6.54866 3.13365 6.51017 3.22167 6.50936 3.31367V8.15199C6.50994 8.24406 6.54836 8.3322 6.6163 8.3973C6.68425 8.4624 6.77623 8.49922 6.87231 8.49978H9.20115C9.29727 8.49933 9.38931 8.46255 9.45728 8.39742C9.52525 8.33229 9.56363 8.24409 9.5641 8.15199V3.31367C9.56352 3.2216 9.5251 3.13346 9.45715 3.06836C9.38921 3.00325 9.29723 2.96643 9.20115 2.96588ZM31.6657 19.0922H36.5606C36.7354 19.0922 36.9031 19.1587 37.0267 19.2772C37.1503 19.3956 37.2197 19.5563 37.2197 19.7238V24.4135C37.2197 24.581 37.1503 24.7416 37.0267 24.8601C36.9031 24.9785 36.7354 25.045 36.5606 25.045H31.6657C31.4909 25.045 31.3232 24.9785 31.1996 24.8601C31.076 24.7416 31.0066 24.581 31.0066 24.4135V19.7225C31.0066 19.555 31.076 19.3944 31.1996 19.2759C31.3232 19.1575 31.4909 19.0909 31.6657 19.0909V19.0922ZM35.9006 20.3554V23.7827H32.3256V20.3537L35.9006 20.3554ZM22.907 19.0922H27.802C27.9768 19.0922 28.1444 19.1587 28.268 19.2772C28.3916 19.3956 28.4611 19.5563 28.4611 19.7238V24.4135C28.4611 24.581 28.3916 24.7416 28.268 24.8601C28.1444 24.9785 27.9768 25.045 27.802 25.045H22.907C22.7322 25.045 22.5646 24.9785 22.441 24.8601C22.3174 24.7416 22.2479 24.581 22.2479 24.4135V19.7225C22.2479 19.555 22.3174 19.3944 22.441 19.2759C22.5646 19.1575 22.7322 19.0909 22.907 19.0909V19.0922ZM27.1438 20.3554V23.7827H23.5688V20.3537L27.1438 20.3554ZM14.1502 19.0922H19.0451C19.2199 19.0922 19.3876 19.1587 19.5112 19.2772C19.6348 19.3956 19.7042 19.5563 19.7042 19.7238V24.4135C19.7042 24.581 19.6348 24.7416 19.5112 24.8601C19.3876 24.9785 19.2199 25.045 19.0451 25.045H14.1502C13.9753 25.045 13.8077 24.9785 13.6841 24.8601C13.5605 24.7416 13.491 24.581 13.491 24.4135V19.7225C13.491 19.555 13.5605 19.3944 13.6841 19.2759C13.8077 19.1575 13.9753 19.0909 14.1502 19.0909V19.0922ZM18.3851 20.3554V23.7827H14.8084V20.3537L18.3851 20.3554ZM5.39152 19.0922H10.2869C10.4617 19.0922 10.6294 19.1587 10.753 19.2772C10.8766 19.3956 10.946 19.5563 10.946 19.7238V24.4135C10.946 24.581 10.8766 24.7416 10.753 24.8601C10.6294 24.9785 10.4617 25.045 10.2869 25.045H5.39152C5.21671 25.045 5.04907 24.9785 4.92546 24.8601C4.80186 24.7416 4.73241 24.581 4.73241 24.4135V19.7225C4.73241 19.555 4.80186 19.3944 4.92546 19.2759C5.04907 19.1575 5.21671 19.0909 5.39152 19.0909V19.0922ZM9.62781 20.3554V23.7827H6.05019V20.3537L9.62781 20.3554ZM31.6657 27.2956H36.5606C36.7354 27.2956 36.9031 27.3621 37.0267 27.4806C37.1503 27.599 37.2197 27.7596 37.2197 27.9271V32.6177C37.2197 32.7852 37.1503 32.9458 37.0267 33.0643C36.9031 33.1827 36.7354 33.2493 36.5606 33.2493H31.6657C31.4909 33.2493 31.3232 33.1827 31.1996 33.0643C31.076 32.9458 31.0066 32.7852 31.0066 32.6177V27.9267C31.0066 27.7592 31.076 27.5986 31.1996 27.4801C31.3232 27.3617 31.4909 27.2951 31.6657 27.2951V27.2956ZM35.9006 28.5587V31.9874H32.3256V28.5579L35.9006 28.5587ZM22.907 27.2956H27.802C27.9768 27.2956 28.1444 27.3621 28.268 27.4806C28.3916 27.599 28.4611 27.7596 28.4611 27.9271V32.6177C28.4611 32.7852 28.3916 32.9458 28.268 33.0643C28.1444 33.1827 27.9768 33.2493 27.802 33.2493H22.907C22.7322 33.2493 22.5646 33.1827 22.441 33.0643C22.3174 32.9458 22.2479 32.7852 22.2479 32.6177V27.9267C22.2479 27.7592 22.3174 27.5986 22.441 27.4801C22.5646 27.3617 22.7322 27.2951 22.907 27.2951V27.2956ZM27.1438 28.5587V31.9874H23.5688V28.5579L27.1438 28.5587ZM14.1502 27.2956H19.0451C19.2199 27.2956 19.3876 27.3621 19.5112 27.4806C19.6348 27.599 19.7042 27.7596 19.7042 27.9271V32.6177C19.7042 32.7852 19.6348 32.9458 19.5112 33.0643C19.3876 33.1827 19.2199 33.2493 19.0451 33.2493H14.1502C13.9753 33.2493 13.8077 33.1827 13.6841 33.0643C13.5605 32.9458 13.491 32.7852 13.491 32.6177V27.9267C13.491 27.7592 13.5605 27.5986 13.6841 27.4801C13.8077 27.3617 13.9753 27.2951 14.1502 27.2951V27.2956ZM18.3851 28.5587V31.9874H14.8084V28.5579L18.3851 28.5587ZM9.62781 28.5587H6.05019V31.9874H9.62781V28.5587Z" fill="url(#paint0_linear_2160_3481)"/>
<defs>
<linearGradient id="paint0_linear_2160_3481" x1="37.0715" y1="-0.599396" x2="16.3138" y2="35.5446" gradientUnits="userSpaceOnUse">
<stop stop-color="#FF6ABD"/>
<stop offset="0.572917" stop-color="#FF008C"/>
<stop offset="1" stop-color="#8F0157"/>
</linearGradient>
</defs>
</svg>
