<svg width="191" height="31" viewBox="0 0 191 31" fill="none" xmlns="http://www.w3.org/2000/svg">
<path fill-rule="evenodd" clip-rule="evenodd" d="M80.442 0.00671269H53.9929L53.9862 0L47.4512 30.6871H56.7466L58.4056 22.9566H72.7585C74.5517 22.9566 75.4719 23.0506 75.9756 23.2319C76.8487 23.5543 77.2651 24.1991 77.2651 25.2133C77.2651 25.6767 77.1778 26.2745 77.0368 26.8722L76.2577 30.6938H85.6875L86.7486 25.8648C87.2994 22.9163 87.3464 22.5066 87.3464 21.8148C87.3464 20.7133 86.7486 19.8872 85.7815 19.5178C85.1682 19.2942 84.7615 19.2407 83.5382 19.08L83.3434 19.0544C86.1039 18.4566 87.3464 17.7178 88.542 15.9245C89.8718 13.8492 90.886 9.66486 90.886 6.0313C90.886 1.34327 88.5823 0.00671269 80.442 0.00671269ZM79.3002 14.6887C78.3801 15.2865 77.3189 15.4678 74.6055 15.4678L74.6122 15.4745H59.9839L61.6831 7.56264H76.6338C78.6554 7.56264 78.9308 7.56264 79.6696 7.791C80.5898 8.06637 81.0465 8.71114 81.0465 9.6783C81.0465 10.182 80.9054 11.1022 80.7241 12.0223C80.3614 13.5402 80.039 14.185 79.3002 14.6887ZM109.846 0.00683594H100.504L93.9688 30.694H103.311L109.846 0.00683594ZM117.853 0.00695683H150.428L148.91 6.9517H125.678L124.341 13.0703H146.472L144.954 20.015H122.871L120.614 30.6874H111.318L117.853 0.000244141V0.00695683ZM152.725 7.59634H166.386H166.392L161.469 30.694H170.805L175.728 7.59634H189.389L191.001 0.00683594H154.337L152.725 7.59634ZM21.291 30.6947L22.8358 23.3806H19.2761L17.7246 30.6947H21.291ZM26.168 7.64361H22.6016L24.2135 0.00708008H27.7799L26.168 7.64361ZM42.5544 1.572C40.7611 0.470511 38.0947 0.00708008 33.0306 0.00708008H32.1306L30.512 7.65032C34.347 7.71077 35.5089 8.61748 35.5089 11.3242C35.5089 12.4257 35.2806 14.0376 34.7298 16.4286C33.9037 20.0152 33.1649 21.4861 31.8284 22.3659C30.6731 23.1316 29.8403 23.3465 27.1873 23.3734L25.6426 30.6942H27.7381C31.0493 30.6942 32.5202 30.6002 34.2731 30.2308C37.7724 29.539 40.8955 26.7315 42.232 23.051C43.797 18.7726 45.4492 10.5854 45.4492 7.26748C45.4492 4.64809 44.482 2.7608 42.5477 1.56528L42.5544 1.572ZM10.9007 23.3806H14.9171L13.3723 30.6947H0L6.52832 0.00756836H19.8603L18.2484 7.64409H14.2589L10.9007 23.3806Z" fill="url(#paint0_linear_2160_3834)"/>
<defs>
<linearGradient id="paint0_linear_2160_3834" x1="173.234" y1="-3.21224" x2="168.647" y2="39.6021" gradientUnits="userSpaceOnUse">
<stop stop-color="#FF6ABD"/>
<stop offset="0.572917" stop-color="#FF008C"/>
<stop offset="1" stop-color="#8F0157"/>
</linearGradient>
</defs>
</svg>
