<svg width="61" height="41" viewBox="0 0 61 41" fill="none" xmlns="http://www.w3.org/2000/svg">
<path d="M28.8124 40.6536L30.8596 30.9629H26.1367L24.0895 40.6536H28.8124Z" fill="black"/>
<path d="M30.5408 10.1159H35.2683L37.4033 0H32.6804L30.5408 10.1159Z" fill="black"/>
<path d="M56.9742 2.07031C54.5989 0.605382 51.0637 0 44.3583 0H43.1706L41.031 10.1251C46.1097 10.2083 47.6532 11.4098 47.6532 14.9913C47.6532 16.4562 47.3482 18.5866 46.6181 21.7568C45.5228 26.512 44.5477 28.4622 42.7778 29.6175C41.2528 30.6342 40.1391 30.9161 36.6315 30.9531L34.5797 40.6484H37.3525C41.7426 40.6484 43.6928 40.5283 46.0081 40.0384C50.6385 39.1234 54.7838 35.4079 56.5537 30.5325C58.624 24.8669 60.8191 14.0162 60.8191 9.62604C60.8191 6.15087 59.539 3.6554 56.9789 2.07031H56.9742Z" fill="black"/>
<path d="M20.3694 30.9623H15.0457L19.4914 10.1159H24.7781L26.9177 0H9.2553L0.599731 40.653H18.3222L20.3694 30.9623Z" fill="black"/>
</svg>
