<svg width="32" height="32" viewBox="0 0 32 32" fill="none" xmlns="http://www.w3.org/2000/svg">
<path d="M27.59 15.5363L16.59 1.53626C16.5198 1.44685 16.4303 1.37456 16.3281 1.32484C16.2258 1.27513 16.1137 1.2493 16 1.2493C15.8864 1.2493 15.7742 1.27513 15.672 1.32484C15.5698 1.37456 15.4802 1.44685 15.41 1.53626L4.41001 15.5363C4.306 15.6685 4.24945 15.8318 4.24945 16C4.24945 16.1682 4.306 16.3316 4.41001 16.4638L15.41 30.4638C15.4802 30.5532 15.5698 30.6255 15.672 30.6752C15.7742 30.7249 15.8864 30.7507 16 30.7507C16.1137 30.7507 16.2258 30.7249 16.3281 30.6752C16.4303 30.6255 16.5198 30.5532 16.59 30.4638L27.59 16.4638C27.694 16.3316 27.7506 16.1682 27.7506 16C27.7506 15.8318 27.694 15.6685 27.59 15.5363ZM16.75 4.16876L25.82 15.7125L16.75 19.8375V4.16876ZM15.25 19.835L6.18001 15.71L15.25 4.16876V19.835ZM15.25 21.4825V27.8313L7.49001 17.9563L15.25 21.4825ZM16.75 21.4825L24.51 17.9563L16.75 27.8313V21.4825Z" fill="black" fill-opacity="0.8"/>
</svg>
