<svg width="192" height="31" viewBox="0 0 192 31" fill="none" xmlns="http://www.w3.org/2000/svg">
<path d="M54.4929 0.00671269H80.942C89.0823 0.00671269 91.386 1.34327 91.386 6.0313C91.386 9.66486 90.3718 13.8492 89.042 15.9245C87.8464 17.7178 86.6039 18.4566 83.8434 19.0544C85.2203 19.2357 85.6367 19.2827 86.2815 19.5178C87.2487 19.8872 87.8464 20.7133 87.8464 21.8148C87.8464 22.5066 87.7994 22.9163 87.2487 25.8648L86.1875 30.6938H76.7577L77.5368 26.8722C77.6778 26.2745 77.7651 25.6767 77.7651 25.2133C77.7651 24.1991 77.3487 23.5543 76.4756 23.2319C75.9719 23.0506 75.0517 22.9566 73.2585 22.9566H58.9056L57.2466 30.6871H47.9512L54.4862 0L54.4929 0.00671269ZM75.1055 15.4678C77.8189 15.4678 78.8801 15.2865 79.8002 14.6887C80.539 14.185 80.8614 13.5402 81.2241 12.0223C81.4054 11.1022 81.5465 10.182 81.5465 9.6783C81.5465 8.71114 81.0898 8.06637 80.1696 7.791C79.4308 7.56264 79.1554 7.56264 77.1338 7.56264H62.1831L60.4839 15.4745H75.1122L75.1055 15.4678Z" fill="white"/>
<path d="M101.004 0.00671387H110.347L103.812 30.6938H94.4691L101.004 0.00671387Z" fill="white"/>
<path d="M118.353 0.00695683H150.927L149.409 6.9517H126.177L124.841 13.0703H146.971L145.453 20.015H123.37L121.113 30.6874H111.818L118.353 0.000244141V0.00695683Z" fill="white"/>
<path d="M166.885 7.59622H153.224L154.836 0.00671387H191.501L189.889 7.59622H176.228L171.305 30.6938H161.969L166.892 7.59622H166.885Z" fill="white"/>
<path d="M21.7906 30.6946L23.3354 23.3805H19.7757L18.2242 30.6946H21.7906Z" fill="white"/>
<path d="M23.1008 7.64373H26.6672L28.2791 0.00720215H24.7127L23.1008 7.64373Z" fill="white"/>
<path d="M43.0544 1.57212C41.2611 0.470633 38.5947 0.00720215 33.5306 0.00720215H32.6306L31.0119 7.65044C34.847 7.71089 36.0089 8.6176 36.0089 11.3243C36.0089 12.4258 35.7805 14.0377 35.2298 16.4287C34.4037 20.0153 33.6649 21.4862 32.3283 22.366C31.1731 23.1317 30.3403 23.3466 27.6873 23.3735L26.1425 30.6943H28.2381C31.5492 30.6943 33.0201 30.6003 34.7731 30.2309C38.2723 29.5391 41.3954 26.7317 42.732 23.0511C44.2969 18.7728 45.9491 10.5855 45.9491 7.2676C45.9491 4.64822 44.982 2.76092 43.0477 1.56541L43.0544 1.57212Z" fill="white"/>
<path d="M15.4171 23.3806H11.4007L14.7589 7.64409H18.7484L20.3603 0.00756836H7.02832L0.5 30.6947H13.8723L15.4171 23.3806Z" fill="white"/>
</svg>
