<svg width="47" height="57" viewBox="0 0 47 57" fill="none" xmlns="http://www.w3.org/2000/svg">
<rect width="47" height="57" fill="#1F1E1E"/>
<g id="DRIFT Updates Jan 11">
<path d="M-4645 -4226C-4645 -4227.1 -4644.1 -4228 -4643 -4228H4869C4870.1 -4228 4871 -4227.1 4871 -4226V4872C4871 4873.1 4870.1 4874 4869 4874H-4643C-4644.1 4874 -4645 4873.1 -4645 4872V-4226Z" fill="#404040"/>
<path d="M-4643 -4227H4869V-4229H-4643V-4227ZM4870 -4226V4872H4872V-4226H4870ZM4869 4873H-4643V4875H4869V4873ZM-4644 4872V-4226H-4646V4872H-4644ZM-4643 4873C-4643.55 4873 -4644 4872.55 -4644 4872H-4646C-4646 4873.66 -4644.66 4875 -4643 4875V4873ZM4870 4872C4870 4872.55 4869.55 4873 4869 4873V4875C4870.66 4875 4872 4873.66 4872 4872H4870ZM4869 -4227C4869.55 -4227 4870 -4226.55 4870 -4226H4872C4872 -4227.66 4870.66 -4229 4869 -4229V-4227ZM-4643 -4229C-4644.66 -4229 -4646 -4227.66 -4646 -4226H-4644C-4644 -4226.55 -4643.55 -4227 -4643 -4227V-4229Z" fill="white" fill-opacity="0.1"/>
<g id="Main Page" clip-path="url(#clip0_27_11)">
<rect width="1512" height="6331" transform="translate(-1194 -2292)" fill="#F2F2F2"/>
<g id="Rectangle 40" style="mix-blend-mode:multiply">
<rect x="-1202" y="-1803" width="1520" height="3651" fill="url(#paint0_linear_27_11)" fill-opacity="0.1"/>
</g>
<path id="Union" fill-rule="evenodd" clip-rule="evenodd" d="M-169.759 -1699C36.3507 -1701.88 319 -1728.7 319 -2063V-1865.99V-1697.97H317V588H-1195V-1699H-169.759Z" fill="url(#paint1_linear_27_11)"/>
<g id="Group 60">
<g id="Rectangle 15" filter="url(#filter0_d_27_11)">
<rect x="-192" y="-27" width="431" height="206" rx="21" fill="white"/>
</g>
<g id="noun-gold-815890 1" clip-path="url(#clip1_27_11)">
<path id="Vector" d="M10.102 31.419H20.9782C21.2432 31.4191 21.5044 31.358 21.7395 31.2408C21.9746 31.1236 22.1768 30.9538 22.3289 30.7458C22.4809 30.5378 22.5784 30.2978 22.6131 30.046C22.6477 29.7942 22.6185 29.5382 22.5279 29.2995L20.7528 24.6285C20.5836 24.1857 20.2768 23.8034 19.8737 23.533C19.4706 23.2626 18.9907 23.1172 18.4986 23.1165H12.5721C12.0801 23.1172 11.6001 23.2626 11.197 23.533C10.7939 23.8034 10.4871 24.1857 10.318 24.6285L8.54754 29.2995C8.45693 29.5382 8.42771 29.7942 8.46236 30.046C8.49701 30.2978 8.59451 30.5378 8.74659 30.7458C8.89866 30.9538 9.10083 31.1236 9.33596 31.2408C9.57108 31.358 9.83223 31.4191 10.0973 31.419H10.102ZM13.2624 26.3565H15.5166V28.1835H12.5721L13.2624 26.3565ZM38.2505 30.7485C38.4024 30.5399 38.4996 30.2993 38.5339 30.0471C38.5683 29.7949 38.5387 29.5385 38.4478 29.2995L36.6773 24.6285C36.5082 24.1857 36.2014 23.8034 35.7983 23.533C35.3952 23.2626 34.9152 23.1172 34.4232 23.1165H28.4967C28.0046 23.1172 27.5247 23.2626 27.1216 23.533C26.7185 23.8034 26.4117 24.1857 26.2425 24.6285L24.4721 29.2995C24.3815 29.5382 24.3523 29.7942 24.3869 30.046C24.4216 30.2978 24.5191 30.5378 24.6711 30.7458C24.8232 30.9538 25.0254 31.1236 25.2605 31.2408C25.4956 31.358 25.7568 31.4191 26.0218 31.419H36.898C37.1631 31.4193 37.4243 31.3586 37.6597 31.2419C37.895 31.1252 38.0977 30.956 38.2505 30.7485ZM31.4318 28.1835H28.492L29.1823 26.3565H31.4271L31.4318 28.1835ZM2.13733 41.49H13.0136C13.2798 41.4923 13.5426 41.4328 13.7796 41.3165C14.0165 41.2002 14.2206 41.0307 14.3743 40.8224C14.528 40.6141 14.6267 40.3732 14.6621 40.1204C14.6975 39.8675 14.6684 39.6102 14.5774 39.3705L12.7928 34.695C12.6237 34.2522 12.3169 33.8699 11.9138 33.5995C11.5107 33.3291 11.0307 33.1837 10.5387 33.183H4.61218C4.12175 33.1856 3.64387 33.3318 3.24264 33.602C2.84141 33.8723 2.53602 34.2537 2.36744 34.695L0.587605 39.3705C0.496997 39.6091 0.46778 39.8652 0.50243 40.117C0.537081 40.3688 0.634577 40.6088 0.786653 40.8168C0.938729 41.0248 1.1409 41.1946 1.37603 41.3118C1.61115 41.429 1.8723 41.4901 2.13733 41.49ZM5.29782 36.423H7.57544V38.25H4.60749L5.29782 36.423ZM30.2906 40.815C30.4425 40.6064 30.5397 40.3658 30.574 40.1136C30.6083 39.8614 30.5788 39.605 30.4878 39.366L28.7127 34.695C28.5436 34.2522 28.2367 33.8699 27.8336 33.5995C27.4306 33.3291 26.9506 33.1837 26.4586 33.183H20.5321C20.04 33.1837 19.5601 33.3291 19.157 33.5995C18.7539 33.8699 18.447 34.2522 18.2779 34.695L16.5122 39.3705C16.4216 39.6091 16.3923 39.8652 16.427 40.117C16.4616 40.3688 16.5591 40.6088 16.7112 40.8168C16.8633 41.0248 17.0655 41.1946 17.3006 41.3118C17.5357 41.429 17.7969 41.4901 18.0619 41.49H28.9381C29.2035 41.4898 29.465 41.4284 29.7004 41.3109C29.9359 41.1934 30.1383 41.0233 30.2906 40.815ZM23.5 38.25H20.5321L21.2224 36.423H23.5V38.25ZM18.2826 14.5575L16.5122 19.233C16.4216 19.4717 16.3923 19.7277 16.427 19.9795C16.4616 20.2313 16.5591 20.4713 16.7112 20.6793C16.8633 20.8873 17.0655 21.0571 17.3006 21.1743C17.5357 21.2915 17.7969 21.3526 18.0619 21.3525H28.9381C29.2031 21.3526 29.4643 21.2915 29.6994 21.1743C29.9345 21.0571 30.1367 20.8873 30.2888 20.6793C30.4409 20.4713 30.5384 20.2313 30.573 19.9795C30.6077 19.7277 30.5784 19.4717 30.4878 19.233L28.7127 14.5575C28.5431 14.1163 28.2366 13.7354 27.8345 13.4659C27.4324 13.1965 26.9539 13.0513 26.4633 13.05H20.5321C20.0414 13.0513 19.5629 13.1965 19.1608 13.4659C18.7587 13.7354 18.4522 14.1163 18.2826 14.5575ZM23.5 16.2855V18.1125H20.5321L21.2224 16.2855H23.5ZM23.5 10.2375C23.0404 10.2375 22.5997 10.0626 22.2747 9.75115C21.9497 9.43974 21.7671 9.01739 21.7671 8.577V5.1705C21.7549 4.94547 21.7906 4.7204 21.872 4.50901C21.9535 4.29762 22.079 4.10432 22.2409 3.94089C22.4027 3.77746 22.5977 3.64732 22.8137 3.55838C23.0298 3.46945 23.2625 3.42358 23.4977 3.42358C23.7328 3.42358 23.9655 3.46945 24.1816 3.55838C24.3976 3.64732 24.5926 3.77746 24.7545 3.94089C24.9164 4.10432 25.0418 4.29762 25.1233 4.50901C25.2047 4.7204 25.2404 4.94547 25.2282 5.1705V8.5815C25.2269 9.02033 25.0445 9.44085 24.7206 9.75115C24.3968 10.0615 23.958 10.2363 23.5 10.2375ZM38.5605 19.9665H35.0008C34.5574 19.9444 34.1399 19.76 33.8342 19.4514C33.5285 19.1429 33.3581 18.7337 33.3581 18.3082C33.3581 17.8828 33.5285 17.4736 33.8342 17.1651C34.1399 16.8565 34.5574 16.6721 35.0008 16.65H38.5605C39.0038 16.6721 39.4214 16.8565 39.7271 17.1651C40.0328 17.4736 40.2032 17.8828 40.2032 18.3082C40.2032 18.7337 40.0328 19.1429 39.7271 19.4514C39.4214 19.76 39.0038 19.9444 38.5605 19.9665ZM35.6489 7.6095C35.9726 7.92074 36.1544 8.34229 36.1544 8.78175C36.1544 9.22121 35.9726 9.64275 35.6489 9.954L33.1271 12.366C32.7969 12.6483 32.3665 12.7989 31.9241 12.7868C31.4818 12.7747 31.061 12.601 30.7481 12.3011C30.4352 12.0013 30.2538 11.5981 30.2412 11.1742C30.2287 10.7503 30.3858 10.3379 30.6804 10.0215L33.1975 7.6095C33.5223 7.29925 33.9622 7.12505 34.4208 7.12505C34.8795 7.12505 35.3194 7.29925 35.6442 7.6095H35.6489ZM8.43953 16.65H11.9992C12.4426 16.6721 12.8602 16.8565 13.1658 17.1651C13.4715 17.4736 13.6419 17.8828 13.6419 18.3082C13.6419 18.7337 13.4715 19.1429 13.1658 19.4514C12.8602 19.76 12.4426 19.9444 11.9992 19.9665H8.43953C7.99615 19.9444 7.57856 19.76 7.2729 19.4514C6.96724 19.1429 6.79684 18.7337 6.79684 18.3082C6.79684 17.8828 6.96724 17.4736 7.2729 17.1651C7.57856 16.8565 7.99615 16.6721 8.43953 16.65ZM16.3196 10.0215C16.4956 10.172 16.6377 10.3553 16.7372 10.5602C16.8367 10.7651 16.8914 10.9874 16.8981 11.2133C16.9049 11.4392 16.8634 11.6641 16.7762 11.8741C16.6891 12.0841 16.5581 12.2749 16.3913 12.4347C16.2245 12.5945 16.0254 12.72 15.8063 12.8035C15.5871 12.887 15.3524 12.9268 15.1167 12.9204C14.8809 12.9139 14.649 12.8614 14.4351 12.7661C14.2213 12.6708 14.03 12.5346 13.8729 12.366L11.3558 9.954C11.0612 9.63759 10.9041 9.22516 10.9167 8.80129C10.9293 8.37742 11.1106 7.97422 11.4235 7.67438C11.7364 7.37454 12.1572 7.20077 12.5996 7.1887C13.0419 7.17664 13.4723 7.32719 13.8025 7.6095L16.3196 10.0215ZM46.2105 40.815C46.3623 40.6064 46.4595 40.3658 46.4939 40.1136C46.5282 39.8614 46.4986 39.605 46.4077 39.366L44.6326 34.695C44.4637 34.253 44.1576 33.8711 43.7554 33.6008C43.3533 33.3304 42.8744 33.1847 42.3831 33.183H36.4566C35.9646 33.1837 35.4846 33.3291 35.0815 33.5995C34.6784 33.8699 34.3716 34.2522 34.2025 34.695L32.4226 39.3705C32.332 39.6091 32.3028 39.8652 32.3375 40.117C32.3721 40.3688 32.4696 40.6088 32.6217 40.8168C32.7738 41.0248 32.9759 41.1946 33.2111 41.3118C33.4462 41.429 33.7073 41.4901 33.9724 41.49H44.8627C45.1273 41.4891 45.3878 41.4273 45.6224 41.3098C45.8569 41.1924 46.0586 41.0227 46.2105 40.815ZM39.4246 38.25H36.4566L37.1469 36.423H39.4246V38.25Z" fill="url(#paint2_linear_27_11)"/>
</g>
</g>
</g>
</g>
<defs>
<filter id="filter0_d_27_11" x="-215" y="-46" width="477" height="252" filterUnits="userSpaceOnUse" color-interpolation-filters="sRGB">
<feFlood flood-opacity="0" result="BackgroundImageFix"/>
<feColorMatrix in="SourceAlpha" type="matrix" values="0 0 0 0 0 0 0 0 0 0 0 0 0 0 0 0 0 0 127 0" result="hardAlpha"/>
<feOffset dy="4"/>
<feGaussianBlur stdDeviation="11.5"/>
<feComposite in2="hardAlpha" operator="out"/>
<feColorMatrix type="matrix" values="0 0 0 0 0 0 0 0 0 0 0 0 0 0 0 0 0 0 0.05 0"/>
<feBlend mode="normal" in2="BackgroundImageFix" result="effect1_dropShadow_27_11"/>
<feBlend mode="normal" in="SourceGraphic" in2="effect1_dropShadow_27_11" result="shape"/>
</filter>
<linearGradient id="paint0_linear_27_11" x1="-442" y1="-1803" x2="-442" y2="1848" gradientUnits="userSpaceOnUse">
<stop stop-color="#B8B8B8"/>
<stop offset="1"/>
</linearGradient>
<linearGradient id="paint1_linear_27_11" x1="-481.5" y1="-1598.5" x2="-450.648" y2="325" gradientUnits="userSpaceOnUse">
<stop stop-color="#F2F2F2"/>
<stop offset="1" stop-color="#DDDDDD"/>
</linearGradient>
<linearGradient id="paint2_linear_27_11" x1="42.2269" y1="-0.560116" x2="19.5166" y2="40.6224" gradientUnits="userSpaceOnUse">
<stop stop-color="#FF6ABD"/>
<stop offset="0.572917" stop-color="#FF008C"/>
<stop offset="1" stop-color="#8F0157"/>
</linearGradient>
<clipPath id="clip0_27_11">
<rect width="1512" height="6331" fill="white" transform="translate(-1194 -2292)"/>
</clipPath>
<clipPath id="clip1_27_11">
<rect width="46.9613" height="56.25" fill="white" transform="translate(0.0195312)"/>
</clipPath>
</defs>
</svg>
