<svg version="1.2" xmlns="http://www.w3.org/2000/svg" viewBox="0 0 83 83" width="83" height="83">
	<title>Group 9 (1)-svg</title>
	<style>
		.s0 { fill: #ff008c } 
		.s1 { fill: #ffffff } 
	</style>
	<path id="Layer" class="s0" d="m41.5 83c-22.9 0-41.5-18.6-41.5-41.5 0-22.9 18.6-41.5 41.5-41.5 22.9 0 41.5 18.6 41.5 41.5 0 22.9-18.6 41.5-41.5 41.5z"/>
	<path id="Layer" class="s1" d="m40.9 59v-19.6l-9.3 6.4-3.4-5.1 10.9-7.3h9.3v25.6z"/>
	<path id="Layer" fill-rule="evenodd" class="s1" d="m16.3 32.5l-7.2-5.8 4.4-5.6c1.2-1.4 1.5-1.7 2.1-2 0.9-0.4 1.8-0.2 3.2 0.9 1.4 1.1 1.9 2 1.8 2.9-0.1 0.6-0.4 1.2-1.4 2.4l-2.9 3.6 1.8 1.4zm-1.8-5l2.6-3.3c0.7-0.9 0.8-1.3 0.1-1.8-0.9-0.7-1.3-0.7-2 0.3l-2.6 3.2z"/>
	<path id="Layer" class="s1" d="m24.7 22.5l-3.8-8.5 2.5-1.1 1.5 3.1 5.9-2.7-1.5-3.1 2.6-1.2 3.9 8.5-2.6 1.2-1.5-3.2-5.9 2.6 1.5 3.3z"/>
	<path id="Layer" fill-rule="evenodd" class="s1" d="m36.5 17.1l5.8-9.1 3.8 0.3 4.5 9.6-3.1-0.2-0.8-1.7-6-0.4-1 1.6zm5.4-3.3l4 0.3-1.8-3.9z"/>
	<path id="Layer" class="s1" d="m53 15.8l2.4 1.5c-0.3 0.5-0.3 0.7-0.1 1 0.2 0.1 0.8 0.6 1.6 1.1 2.8 1.6 3.2 1.7 3.6 1.1 0.2-0.4 0.2-0.7 0-0.9-0.2-0.3-0.2-0.3-1.5-1l-2.2-1.3c-1.5-0.9-2.1-1.3-2.4-1.9-0.4-0.7-0.3-1.5 0.3-2.6 0.9-1.4 1.7-1.8 3-1.4 0.7 0.2 1.7 0.7 3.5 1.8 2.8 1.6 3.4 2.1 3.8 2.8 0.3 0.7 0.2 1.3-0.5 2.5l-2.4-1.4c0.4-0.7 0.2-0.9-1.4-1.9-0.8-0.4-1.8-1-2.2-1.2-0.7-0.4-1-0.3-1.3 0.1q-0.3 0.6 0.2 1c0.1 0.1 0.1 0.2 0.9 0.6l2.3 1.4c0.2 0.1 1.3 0.8 1.7 1 1.5 1 1.7 2.1 0.7 3.7-0.9 1.5-1.7 1.8-3 1.4q-1-0.3-3.7-1.9c-2.8-1.6-3.3-2-3.8-2.8q-0.6-0.8 0.3-2.3c0 0 0.1-0.2 0.2-0.4z"/>
	<path id="Layer" class="s1" d="m70.3 20.2l5.9 8.5-1.8 1.2-4.2-6.2-1.4 0.9 4.1 5.9-1.6 1-4-5.9-1.4 1 4.4 6.3-1.8 1.2-5.9-8.6z"/>
	<g id="Layer">
	</g>
	<g id="Layer">
	</g>
	<g id="Layer">
	</g>
	<g id="Layer">
	</g>
	<g id="Layer">
	</g>
</svg>