<svg width="53" height="63" viewBox="0 0 53 63" fill="none" xmlns="http://www.w3.org/2000/svg">
<path d="M13.1702 31.8295C12.755 31.427 12.2011 31.205 11.6086 31.205C11.0327 31.205 10.4899 31.417 10.0803 31.798L5.27342 36.298C4.41518 37.1025 4.39844 38.4315 5.23995 39.252L13.0431 46.875C13.4584 47.2775 14.0123 47.5 14.6101 47.5C15.1859 47.5 15.7288 47.288 16.1383 46.907L20.9394 42.407C21.3547 42.0205 21.5874 41.5015 21.5927 40.9405C21.6037 40.3795 21.3824 39.85 20.9724 39.453L13.1702 31.8295Z" fill="url(#paint0_linear_2160_3489)"/>
<path d="M43.8935 24.8465L41.0416 27.7585C41.0196 27.7795 40.9919 27.79 40.9694 27.8115C40.9526 27.822 40.9417 27.843 40.9197 27.854L40.2272 28.251L38.0678 29.5905C38.1284 29.8075 38.1677 30.035 38.1677 30.268C38.1677 31.761 36.8941 32.9785 35.3325 32.9785H27.6846C27.3802 32.9785 27.1307 32.74 27.1307 32.449C27.1307 32.158 27.3802 31.9195 27.6846 31.9195H35.3319C36.2843 31.9195 37.0599 31.1785 37.0599 30.2675C37.0599 29.3565 36.2849 28.6155 35.3319 28.6155H28.6757C28.6699 28.6155 28.6699 28.6155 28.6699 28.6155C28.6532 28.6155 28.6365 28.605 28.6145 28.605C28.581 28.5995 28.5423 28.5945 28.5094 28.584C28.4707 28.5735 28.4372 28.5575 28.4043 28.5415C28.3875 28.531 28.3708 28.531 28.3546 28.5205L26.8206 27.483C26.2338 27.086 25.5136 26.869 24.7992 26.869H20.4133C19.5054 26.869 18.6414 27.197 17.9876 27.7955L14.1666 31.2895L21.5649 38.516L21.9802 38.2195C23.1653 37.383 24.5717 36.9385 26.045 36.9385H33.4434C34.9993 36.9385 36.5165 36.425 37.7132 35.4985L42.2764 31.9675L48.0686 26.07C48.2402 25.89 48.3343 25.6625 48.3343 25.4135C48.3343 25.154 48.2234 24.905 48.0184 24.7145C46.8505 23.671 44.9955 23.7295 43.8935 24.8465Z" fill="url(#paint1_linear_2160_3489)"/>
<path d="M30.5721 8.096H34.7216C34.9449 8.096 35.14 7.953 35.1986 7.747L36.5427 2.9985C36.6133 2.7475 36.4156 2.5 36.1431 2.5H29.16C28.888 2.5 28.6898 2.747 28.7604 2.998L30.0951 7.746C30.1526 7.9525 30.3483 8.096 30.5721 8.096Z" fill="url(#paint2_linear_2160_3489)"/>
<path d="M21.7705 22.337C21.7705 23.5175 21.9201 24.6825 22.2077 25.81H24.7992C25.7406 25.81 26.6878 26.096 27.4571 26.62L28.8472 27.557H35.3319C36.2514 27.557 37.0599 27.9805 37.5803 28.6315L39.6347 27.3555H39.6404C39.6462 27.3505 39.6462 27.3505 39.6462 27.3505L40.2884 26.98L43.0907 24.121C43.2016 24.01 43.3234 23.904 43.4453 23.8035C43.5007 23.3215 43.5284 22.8345 43.5284 22.337C43.5284 21.3205 43.4176 20.3145 43.2016 19.3355C42.3009 15.213 39.5677 11.5425 35.6159 9.2945C35.4533 9.202 35.266 9.155 35.0767 9.155H30.2159C30.0271 9.155 29.8399 9.202 29.6778 9.2945C24.7908 12.0805 21.7705 17.0425 21.7705 22.337ZM30.1657 16.826C30.4372 16.175 31.1291 15.64 31.65 15.4175L31.8163 15.3485V14.353C31.8163 14.0935 32.3038 13.813 32.6468 13.813C32.9899 13.813 33.4774 14.0935 33.4774 14.353V15.343L33.6322 15.417C34.1196 15.6395 34.9334 16.2325 35.1939 16.9735C35.2326 17.0955 35.0663 17.3175 34.9779 17.4395C34.8727 17.5825 34.6954 17.667 34.5072 17.667C34.2692 17.667 34.0532 17.524 33.981 17.307C33.787 16.751 33.2499 16.3805 32.6353 16.3805H32.6296C32.5135 16.3805 32.4303 16.386 32.3472 16.4015C31.8984 16.4915 31.5334 16.772 31.3613 17.1535C31.173 17.577 31.2117 18.0005 31.4722 18.3815C31.7159 18.736 32.1092 18.911 32.6463 18.911H32.7295C33.6045 18.911 34.4517 19.345 34.8393 19.9965C35.3267 20.8225 35.4318 21.733 35.1217 22.437C34.8393 23.067 34.1583 23.5965 33.6374 23.819L33.4768 23.888V24.8675C33.4768 25.132 32.9894 25.413 32.6463 25.413C32.3032 25.413 31.8158 25.1325 31.8158 24.8675V23.8935L31.661 23.8195C31.0742 23.544 30.3373 22.9355 30.1051 22.2525C30.0606 22.12 30.2379 21.8875 30.3153 21.7865C30.4204 21.6435 30.5977 21.559 30.786 21.559C31.024 21.559 31.24 21.702 31.3121 21.9135C31.5062 22.464 32.0433 22.8295 32.6521 22.8295C32.7572 22.8295 32.8681 22.819 32.9732 22.7975C33.4381 22.697 33.8372 22.342 33.981 21.903C34.1196 21.49 34.0474 21.056 33.7818 20.712C33.5161 20.368 33.0951 20.1615 32.6463 20.1615H32.5522C31.6662 20.1615 30.9073 19.8175 30.5255 19.2405C29.9827 18.4195 29.8556 17.562 30.1657 16.826Z" fill="url(#paint3_linear_2160_3489)"/>
<defs>
<linearGradient id="paint0_linear_2160_3489" x1="44.2678" y1="-2.2093" x2="14.6478" y2="40.9521" gradientUnits="userSpaceOnUse">
<stop stop-color="#FF6ABD"/>
<stop offset="0.572917" stop-color="#FF008C"/>
<stop offset="1" stop-color="#8F0157"/>
</linearGradient>
<linearGradient id="paint1_linear_2160_3489" x1="44.2678" y1="-2.2093" x2="14.6478" y2="40.9521" gradientUnits="userSpaceOnUse">
<stop stop-color="#FF6ABD"/>
<stop offset="0.572917" stop-color="#FF008C"/>
<stop offset="1" stop-color="#8F0157"/>
</linearGradient>
<linearGradient id="paint2_linear_2160_3489" x1="44.2678" y1="-2.2093" x2="14.6478" y2="40.9521" gradientUnits="userSpaceOnUse">
<stop stop-color="#FF6ABD"/>
<stop offset="0.572917" stop-color="#FF008C"/>
<stop offset="1" stop-color="#8F0157"/>
</linearGradient>
<linearGradient id="paint3_linear_2160_3489" x1="44.2678" y1="-2.2093" x2="14.6478" y2="40.9521" gradientUnits="userSpaceOnUse">
<stop stop-color="#FF6ABD"/>
<stop offset="0.572917" stop-color="#FF008C"/>
<stop offset="1" stop-color="#8F0157"/>
</linearGradient>
</defs>
</svg>
