<svg width="28" height="28" viewBox="0 0 28 28" fill="none" xmlns="http://www.w3.org/2000/svg">
<path d="M23.625 3.5H9.625C9.39294 3.5 9.17038 3.59219 9.00628 3.75628C8.84219 3.92038 8.75 4.14294 8.75 4.375V8.75H4.375C4.14294 8.75 3.92038 8.84219 3.75628 9.00628C3.59219 9.17038 3.5 9.39294 3.5 9.625V23.625C3.5 23.8571 3.59219 24.0796 3.75628 24.2437C3.92038 24.4078 4.14294 24.5 4.375 24.5H18.375C18.6071 24.5 18.8296 24.4078 18.9937 24.2437C19.1578 24.0796 19.25 23.8571 19.25 23.625V19.25H23.625C23.8571 19.25 24.0796 19.1578 24.2437 18.9937C24.4078 18.8296 24.5 18.6071 24.5 18.375V4.375C24.5 4.14294 24.4078 3.92038 24.2437 3.75628C24.0796 3.59219 23.8571 3.5 23.625 3.5ZM17.5 22.75H5.25V10.5H17.5V22.75ZM22.75 17.5H19.25V9.625C19.25 9.39294 19.1578 9.17038 18.9937 9.00628C18.8296 8.84219 18.6071 8.75 18.375 8.75H10.5V5.25H22.75V17.5Z" fill="#FF008C"/>
</svg>
