<svg width="23" height="23" viewBox="0 0 23 23" fill="none" xmlns="http://www.w3.org/2000/svg">
<circle cx="11.5" cy="11.5" r="11.5" fill="white"/>
<g clip-path="url(#clip0_5_14)">
<path d="M15.1149 8.97343C14.8226 8.81926 14.4464 8.81926 14.1122 8.97343L11.7729 10.2466L10.1855 11.0565L7.8878 12.3305C7.59546 12.4847 7.21933 12.4847 6.8851 12.3305L5.0895 11.3276C4.9368 11.2445 4.81022 11.1261 4.72226 10.984C4.63431 10.8419 4.58803 10.6811 4.588 10.5175V8.58771C4.588 8.27908 4.75527 7.97045 5.0895 7.77759L6.8851 6.81331C7.17743 6.65885 7.55356 6.65885 7.8878 6.81331L9.68339 7.81628C9.83613 7.89931 9.96275 8.01772 10.0507 8.15981C10.1387 8.3019 10.1849 8.46274 10.1849 8.6264V9.89932L11.7723 9.05051V7.7392C11.7723 7.43057 11.6053 7.12194 11.2711 6.92908L7.92938 5.11657C7.63704 4.96211 7.26123 4.96211 6.92699 5.11657L3.50119 6.96748C3.16696 7.12194 3 7.43057 3 7.7392V11.3651C3 11.6737 3.16696 11.9815 3.50119 12.1752L6.8851 13.9886C7.17743 14.1431 7.55356 14.1431 7.8878 13.9886L10.1855 12.7541L11.7729 11.9056L14.0706 10.671C14.363 10.5169 14.7391 10.5169 15.0733 10.671L16.8689 11.6356C17.0219 11.7187 17.1487 11.8373 17.2367 11.9796C17.3247 12.1219 17.3709 12.283 17.3707 12.4469V14.3755C17.3707 14.6841 17.2038 14.9927 16.8695 15.1856L15.1149 16.1502C14.8226 16.3043 14.4464 16.3043 14.1122 16.1502L12.3166 15.1856C12.1639 15.1025 12.0374 14.9841 11.9495 14.842C11.8616 14.6999 11.8154 14.5391 11.8154 14.3755V13.1398L10.2271 13.9886V15.2615C10.2271 15.5701 10.3944 15.8788 10.7286 16.0716L14.1122 17.8847C14.4049 18.0392 14.7807 18.0392 15.1149 17.8847L18.4988 16.0713C18.6515 15.9883 18.778 15.8698 18.8659 15.7277C18.9538 15.5857 19 15.4249 19 15.2612V11.5961C19 11.2874 18.833 10.9788 18.4988 10.7859L15.1149 8.97343Z" fill="black"/>
</g>
<defs>
<clipPath id="clip0_5_14">
<rect width="16" height="13" fill="white" transform="translate(3 5)"/>
</clipPath>
</defs>
</svg>
